<svg width="67" height="85" viewBox="0 0 67 85" fill="none" xmlns="http://www.w3.org/2000/svg">
<path d="M49.4225 24.9965V38.8863H36.8556M49.4225 24.9965H36.8556M49.4225 24.9965L39.8319 13.7524H26.9343M36.8556 24.9965V38.8863M36.8556 24.9965L26.9343 13.7524M36.8556 38.8863H31.5642M22.9658 38.8863H17.3438V24.9965L26.9343 13.7524M22.9658 38.8863V27.6422H31.5642V38.8863M22.9658 38.8863H31.5642" stroke="white" stroke-width="1.5"/>
<rect x="1.55859" y="1.60486" width="63.9803" height="82.5" rx="4.54134" stroke="white" stroke-width="1.5"/>
<rect x="58.9248" y="7.55762" width="37.5236" height="52.0748" rx="1.89567" transform="rotate(90 58.9248 7.55762)" stroke="white" stroke-width="1.5"/>
<mask id="path-4-inside-1_209_91" fill="white">
<rect x="18.0054" y="51.1226" width="11.9055" height="11.9055" rx="1.32283" transform="rotate(90 18.0054 51.1226)"/>
</mask>
<rect x="18.0054" y="51.1226" width="11.9055" height="11.9055" rx="1.32283" transform="rotate(90 18.0054 51.1226)" stroke="white" stroke-width="3" mask="url(#path-4-inside-1_209_91)"/>
<mask id="path-5-inside-2_209_91" fill="white">
<rect x="18.0054" y="64.351" width="11.9055" height="11.9055" rx="1.32283" transform="rotate(90 18.0054 64.351)"/>
</mask>
<rect x="18.0054" y="64.351" width="11.9055" height="11.9055" rx="1.32283" transform="rotate(90 18.0054 64.351)" stroke="white" stroke-width="3" mask="url(#path-5-inside-2_209_91)"/>
<mask id="path-6-inside-3_209_91" fill="white">
<rect x="31.895" y="64.351" width="11.9055" height="11.9055" rx="1.32283" transform="rotate(90 31.895 64.351)"/>
</mask>
<rect x="31.895" y="64.351" width="11.9055" height="11.9055" rx="1.32283" transform="rotate(90 31.895 64.351)" stroke="white" stroke-width="3" mask="url(#path-6-inside-3_209_91)"/>
<mask id="path-7-inside-4_209_91" fill="white">
<rect x="45.7847" y="64.351" width="11.9055" height="11.9055" rx="1.32283" transform="rotate(90 45.7847 64.351)"/>
</mask>
<rect x="45.7847" y="64.351" width="11.9055" height="11.9055" rx="1.32283" transform="rotate(90 45.7847 64.351)" stroke="white" stroke-width="3" mask="url(#path-7-inside-4_209_91)"/>
<mask id="path-8-inside-5_209_91" fill="white">
<rect x="31.895" y="51.1226" width="11.9055" height="11.9055" rx="1.32283" transform="rotate(90 31.895 51.1226)"/>
</mask>
<rect x="31.895" y="51.1226" width="11.9055" height="11.9055" rx="1.32283" transform="rotate(90 31.895 51.1226)" stroke="white" stroke-width="3" mask="url(#path-8-inside-5_209_91)"/>
<mask id="path-9-inside-6_209_91" fill="white">
<rect x="45.7847" y="51.1226" width="11.9055" height="11.9055" rx="1.32283" transform="rotate(90 45.7847 51.1226)"/>
</mask>
<rect x="45.7847" y="51.1226" width="11.9055" height="11.9055" rx="1.32283" transform="rotate(90 45.7847 51.1226)" stroke="white" stroke-width="3" mask="url(#path-9-inside-6_209_91)"/>
<mask id="path-10-inside-7_209_91" fill="white">
<rect x="59.6748" y="51.1226" width="25.1339" height="11.9055" rx="1.32283" transform="rotate(90 59.6748 51.1226)"/>
</mask>
<rect x="59.6748" y="51.1226" width="25.1339" height="11.9055" rx="1.32283" transform="rotate(90 59.6748 51.1226)" stroke="white" stroke-width="3" mask="url(#path-10-inside-7_209_91)"/>
</svg>
