<svg width="85" height="85" viewBox="0 0 85 85" fill="none" xmlns="http://www.w3.org/2000/svg">
<g clip-path="url(#clip0_550_279)">
<mask id="mask0_550_279" style="mask-type:luminance" maskUnits="userSpaceOnUse" x="0" y="0" width="85" height="85">
<path d="M85 0H0V85H85V0Z" fill="white"/>
</mask>
<g mask="url(#mask0_550_279)">
<path d="M59.1183 24.4291V38.4842H46.4018M59.1183 24.4291H46.4018M59.1183 24.4291L49.4136 13.0511H36.3624M46.4018 38.4842V24.4291M46.4018 38.4842H41.0475M46.4018 24.4291L36.3624 13.0511M36.3624 13.0511L26.6577 24.4291V38.4842H32.3467M41.0475 38.4842V27.1063H32.3467V38.4842M41.0475 38.4842H32.3467" stroke="white" stroke-width="2.26891"/>
<path d="M67.681 1.13446H18.4291C14.359 1.13446 11.0596 4.43389 11.0596 8.50394V76.4961C11.0596 80.5661 14.359 83.8656 18.4291 83.8656H67.681C71.751 83.8656 75.0505 80.5661 75.0505 76.4961V8.50394C75.0505 4.43389 71.751 1.13446 67.681 1.13446Z" stroke="white" stroke-width="2.26891"/>
<path d="M68.3574 41.2599V10.2756C68.3574 8.55384 66.9617 7.15808 65.2399 7.15808L19.5312 7.15808C17.8095 7.15808 16.4137 8.55384 16.4137 10.2756V41.2599C16.4137 42.9816 17.8095 44.3774 19.5312 44.3774H65.2399C66.9617 44.3774 68.3574 42.9816 68.3574 41.2599Z" stroke="white" stroke-width="2.26891"/>
<mask id="mask1_550_279" style="mask-type:luminance" maskUnits="userSpaceOnUse" x="15" y="50" width="13" height="13">
<path d="M27.3271 60.7873V52.9921C27.3271 51.8179 26.3753 50.8661 25.2012 50.8661H17.4059C16.2318 50.8661 15.2799 51.8179 15.2799 52.9921V60.7873C15.2799 61.9615 16.2318 62.9133 17.4059 62.9133H25.2012C26.3753 62.9133 27.3271 61.9615 27.3271 60.7873Z" fill="white"/>
</mask>
<g mask="url(#mask1_550_279)">
<path d="M27.3271 60.7873V52.9921C27.3271 51.8179 26.3753 50.8661 25.2012 50.8661H17.4059C16.2318 50.8661 15.2799 51.8179 15.2799 52.9921V60.7873C15.2799 61.9615 16.2318 62.9133 17.4059 62.9133H25.2012C26.3753 62.9133 27.3271 61.9615 27.3271 60.7873Z" stroke="white" stroke-width="4.53782"/>
</g>
<mask id="mask2_550_279" style="mask-type:luminance" maskUnits="userSpaceOnUse" x="15" y="64" width="13" height="13">
<path d="M27.3271 74.1732V66.378C27.3271 65.2038 26.3753 64.252 25.2012 64.252H17.4059C16.2318 64.252 15.2799 65.2038 15.2799 66.378V74.1732C15.2799 75.3474 16.2318 76.2992 17.4059 76.2992H25.2012C26.3753 76.2992 27.3271 75.3474 27.3271 74.1732Z" fill="white"/>
</mask>
<g mask="url(#mask2_550_279)">
<path d="M27.3271 74.1732V66.378C27.3271 65.2038 26.3753 64.252 25.2012 64.252H17.4059C16.2318 64.252 15.2799 65.2038 15.2799 66.378V74.1732C15.2799 75.3474 16.2318 76.2992 17.4059 76.2992H25.2012C26.3753 76.2992 27.3271 75.3474 27.3271 74.1732Z" stroke="white" stroke-width="4.53782"/>
</g>
<mask id="mask3_550_279" style="mask-type:luminance" maskUnits="userSpaceOnUse" x="29" y="64" width="13" height="13">
<path d="M41.3823 74.1732V66.378C41.3823 65.2038 40.4305 64.252 39.2563 64.252H31.4611C30.287 64.252 29.3351 65.2038 29.3351 66.378V74.1732C29.3351 75.3474 30.287 76.2992 31.4611 76.2992H39.2563C40.4305 76.2992 41.3823 75.3474 41.3823 74.1732Z" fill="white"/>
</mask>
<g mask="url(#mask3_550_279)">
<path d="M41.3823 74.1732V66.378C41.3823 65.2038 40.4305 64.252 39.2563 64.252H31.4611C30.287 64.252 29.3351 65.2038 29.3351 66.378V74.1732C29.3351 75.3474 30.287 76.2992 31.4611 76.2992H39.2563C40.4305 76.2992 41.3823 75.3474 41.3823 74.1732Z" stroke="white" stroke-width="4.53782"/>
</g>
<mask id="mask4_550_279" style="mask-type:luminance" maskUnits="userSpaceOnUse" x="43" y="64" width="13" height="13">
<path d="M55.437 74.1732V66.378C55.437 65.2038 54.4852 64.252 53.311 64.252H45.5158C44.3416 64.252 43.3898 65.2038 43.3898 66.378V74.1732C43.3898 75.3474 44.3416 76.2992 45.5158 76.2992H53.311C54.4852 76.2992 55.437 75.3474 55.437 74.1732Z" fill="white"/>
</mask>
<g mask="url(#mask4_550_279)">
<path d="M55.437 74.1732V66.378C55.437 65.2038 54.4852 64.252 53.311 64.252H45.5158C44.3416 64.252 43.3898 65.2038 43.3898 66.378V74.1732C43.3898 75.3474 44.3416 76.2992 45.5158 76.2992H53.311C54.4852 76.2992 55.437 75.3474 55.437 74.1732Z" stroke="white" stroke-width="4.53782"/>
</g>
<mask id="mask5_550_279" style="mask-type:luminance" maskUnits="userSpaceOnUse" x="29" y="50" width="13" height="13">
<path d="M41.3823 60.7873V52.9921C41.3823 51.8179 40.4305 50.8661 39.2563 50.8661H31.4611C30.287 50.8661 29.3351 51.8179 29.3351 52.9921V60.7873C29.3351 61.9615 30.287 62.9133 31.4611 62.9133H39.2563C40.4305 62.9133 41.3823 61.9615 41.3823 60.7873Z" fill="white"/>
</mask>
<g mask="url(#mask5_550_279)">
<path d="M41.3823 60.7873V52.9921C41.3823 51.8179 40.4305 50.8661 39.2563 50.8661H31.4611C30.287 50.8661 29.3351 51.8179 29.3351 52.9921V60.7873C29.3351 61.9615 30.287 62.9133 31.4611 62.9133H39.2563C40.4305 62.9133 41.3823 61.9615 41.3823 60.7873Z" stroke="white" stroke-width="4.53782"/>
</g>
<mask id="mask6_550_279" style="mask-type:luminance" maskUnits="userSpaceOnUse" x="43" y="50" width="13" height="13">
<path d="M55.437 60.7873V52.9921C55.437 51.8179 54.4852 50.8661 53.311 50.8661H45.5158C44.3416 50.8661 43.3898 51.8179 43.3898 52.9921V60.7873C43.3898 61.9615 44.3416 62.9133 45.5158 62.9133H53.311C54.4852 62.9133 55.437 61.9615 55.437 60.7873Z" fill="white"/>
</mask>
<g mask="url(#mask6_550_279)">
<path d="M55.437 60.7873V52.9921C55.437 51.8179 54.4852 50.8661 53.311 50.8661H45.5158C44.3416 50.8661 43.3898 51.8179 43.3898 52.9921V60.7873C43.3898 61.9615 44.3416 62.9133 45.5158 62.9133H53.311C54.4852 62.9133 55.437 61.9615 55.437 60.7873Z" stroke="white" stroke-width="4.53782"/>
</g>
<mask id="mask7_550_279" style="mask-type:luminance" maskUnits="userSpaceOnUse" x="57" y="50" width="13" height="27">
<path d="M69.4922 74.1732V52.9921C69.4922 51.8179 68.5404 50.8661 67.3662 50.8661H59.571C58.3968 50.8661 57.445 51.8179 57.445 52.9921V74.1732C57.445 75.3473 58.3968 76.2992 59.571 76.2992H67.3662C68.5404 76.2992 69.4922 75.3473 69.4922 74.1732Z" fill="white"/>
</mask>
<g mask="url(#mask7_550_279)">
<path d="M69.4922 74.1732V52.9921C69.4922 51.8179 68.5404 50.8661 67.3662 50.8661H59.571C58.3968 50.8661 57.445 51.8179 57.445 52.9921V74.1732C57.445 75.3473 58.3968 76.2992 59.571 76.2992H67.3662C68.5404 76.2992 69.4922 75.3473 69.4922 74.1732Z" stroke="white" stroke-width="4.53782"/>
</g>
</g>
</g>
<defs>
<clipPath id="clip0_550_279">
<rect width="85" height="85" fill="white"/>
</clipPath>
</defs>
</svg>
