<svg width="85" height="86" viewBox="0 0 85 86" fill="none" xmlns="http://www.w3.org/2000/svg">
<g clip-path="url(#clip0_120_206)">
<path d="M58.4225 24.9965V38.8863H45.8556M58.4225 24.9965H45.8556M58.4225 24.9965L48.8319 13.7524H35.9343M45.8556 24.9965V38.8863M45.8556 24.9965L35.9343 13.7524M45.8556 38.8863H40.5642M31.9658 38.8863H26.3438V24.9965L35.9343 13.7524M31.9658 38.8863V27.6422H40.5642V38.8863M31.9658 38.8863H40.5642" stroke="white" stroke-width="1.5"/>
<rect x="10.5586" y="1.60486" width="63.9803" height="82.5" rx="4.54134" stroke="white" stroke-width="1.5"/>
<rect x="67.9248" y="7.55762" width="37.5236" height="52.0748" rx="1.89567" transform="rotate(90 67.9248 7.55762)" stroke="white" stroke-width="1.5"/>
<mask id="path-4-inside-1_120_206" fill="white">
<rect x="27.0054" y="51.1226" width="11.9055" height="11.9055" rx="1.32283" transform="rotate(90 27.0054 51.1226)"/>
</mask>
<rect x="27.0054" y="51.1226" width="11.9055" height="11.9055" rx="1.32283" transform="rotate(90 27.0054 51.1226)" stroke="white" stroke-width="3" mask="url(#path-4-inside-1_120_206)"/>
<mask id="path-5-inside-2_120_206" fill="white">
<rect x="27.0054" y="64.351" width="11.9055" height="11.9055" rx="1.32283" transform="rotate(90 27.0054 64.351)"/>
</mask>
<rect x="27.0054" y="64.351" width="11.9055" height="11.9055" rx="1.32283" transform="rotate(90 27.0054 64.351)" stroke="white" stroke-width="3" mask="url(#path-5-inside-2_120_206)"/>
<mask id="path-6-inside-3_120_206" fill="white">
<rect x="40.895" y="64.351" width="11.9055" height="11.9055" rx="1.32283" transform="rotate(90 40.895 64.351)"/>
</mask>
<rect x="40.895" y="64.351" width="11.9055" height="11.9055" rx="1.32283" transform="rotate(90 40.895 64.351)" stroke="white" stroke-width="3" mask="url(#path-6-inside-3_120_206)"/>
<mask id="path-7-inside-4_120_206" fill="white">
<rect x="54.7847" y="64.351" width="11.9055" height="11.9055" rx="1.32283" transform="rotate(90 54.7847 64.351)"/>
</mask>
<rect x="54.7847" y="64.351" width="11.9055" height="11.9055" rx="1.32283" transform="rotate(90 54.7847 64.351)" stroke="white" stroke-width="3" mask="url(#path-7-inside-4_120_206)"/>
<mask id="path-8-inside-5_120_206" fill="white">
<rect x="40.895" y="51.1226" width="11.9055" height="11.9055" rx="1.32283" transform="rotate(90 40.895 51.1226)"/>
</mask>
<rect x="40.895" y="51.1226" width="11.9055" height="11.9055" rx="1.32283" transform="rotate(90 40.895 51.1226)" stroke="white" stroke-width="3" mask="url(#path-8-inside-5_120_206)"/>
<mask id="path-9-inside-6_120_206" fill="white">
<rect x="54.7847" y="51.1226" width="11.9055" height="11.9055" rx="1.32283" transform="rotate(90 54.7847 51.1226)"/>
</mask>
<rect x="54.7847" y="51.1226" width="11.9055" height="11.9055" rx="1.32283" transform="rotate(90 54.7847 51.1226)" stroke="white" stroke-width="3" mask="url(#path-9-inside-6_120_206)"/>
<mask id="path-10-inside-7_120_206" fill="white">
<rect x="68.6748" y="51.1226" width="25.1339" height="11.9055" rx="1.32283" transform="rotate(90 68.6748 51.1226)"/>
</mask>
<rect x="68.6748" y="51.1226" width="25.1339" height="11.9055" rx="1.32283" transform="rotate(90 68.6748 51.1226)" stroke="white" stroke-width="3" mask="url(#path-10-inside-7_120_206)"/>
</g>
<defs>
<clipPath id="clip0_120_206">
<rect width="84" height="84" fill="white" transform="translate(0 0.854858)"/>
</clipPath>
</defs>
</svg>
