<svg width="85" height="85" viewBox="0 0 85 85" fill="none" xmlns="http://www.w3.org/2000/svg">
<g clip-path="url(#clip0_110_410)">
<path d="M59.1183 24.4291V38.4842H46.4018M59.1183 24.4291H46.4018M59.1183 24.4291L49.4136 13.0511H36.3624M46.4018 24.4291V38.4842M46.4018 24.4291L36.3624 13.0511M46.4018 38.4842H41.0475M32.3467 38.4842H26.6577V24.4291L36.3624 13.0511M32.3467 38.4842V27.1063H41.0475V38.4842M32.3467 38.4842H41.0475" stroke="white" stroke-width="2.26891"/>
<rect x="11.0597" y="1.13445" width="63.9909" height="82.7311" rx="7.36948" stroke="white" stroke-width="2.26891"/>
<rect x="68.3577" y="7.15807" width="37.2193" height="51.9437" rx="3.11751" transform="rotate(90 68.3577 7.15807)" stroke="white" stroke-width="2.26891"/>
<mask id="path-4-inside-1_110_410" fill="white">
<rect x="27.3269" y="50.8661" width="12.0472" height="12.0472" rx="2.12598" transform="rotate(90 27.3269 50.8661)"/>
</mask>
<rect x="27.3269" y="50.8661" width="12.0472" height="12.0472" rx="2.12598" transform="rotate(90 27.3269 50.8661)" stroke="white" stroke-width="4.53782" mask="url(#path-4-inside-1_110_410)"/>
<mask id="path-5-inside-2_110_410" fill="white">
<rect x="27.3269" y="64.252" width="12.0472" height="12.0472" rx="2.12598" transform="rotate(90 27.3269 64.252)"/>
</mask>
<rect x="27.3269" y="64.252" width="12.0472" height="12.0472" rx="2.12598" transform="rotate(90 27.3269 64.252)" stroke="white" stroke-width="4.53782" mask="url(#path-5-inside-2_110_410)"/>
<mask id="path-6-inside-3_110_410" fill="white">
<rect x="41.3821" y="64.252" width="12.0472" height="12.0472" rx="2.12598" transform="rotate(90 41.3821 64.252)"/>
</mask>
<rect x="41.3821" y="64.252" width="12.0472" height="12.0472" rx="2.12598" transform="rotate(90 41.3821 64.252)" stroke="white" stroke-width="4.53782" mask="url(#path-6-inside-3_110_410)"/>
<mask id="path-7-inside-4_110_410" fill="white">
<rect x="55.437" y="64.252" width="12.0472" height="12.0472" rx="2.12598" transform="rotate(90 55.437 64.252)"/>
</mask>
<rect x="55.437" y="64.252" width="12.0472" height="12.0472" rx="2.12598" transform="rotate(90 55.437 64.252)" stroke="white" stroke-width="4.53782" mask="url(#path-7-inside-4_110_410)"/>
<mask id="path-8-inside-5_110_410" fill="white">
<rect x="41.3821" y="50.8661" width="12.0472" height="12.0472" rx="2.12598" transform="rotate(90 41.3821 50.8661)"/>
</mask>
<rect x="41.3821" y="50.8661" width="12.0472" height="12.0472" rx="2.12598" transform="rotate(90 41.3821 50.8661)" stroke="white" stroke-width="4.53782" mask="url(#path-8-inside-5_110_410)"/>
<mask id="path-9-inside-6_110_410" fill="white">
<rect x="55.437" y="50.8661" width="12.0472" height="12.0472" rx="2.12598" transform="rotate(90 55.437 50.8661)"/>
</mask>
<rect x="55.437" y="50.8661" width="12.0472" height="12.0472" rx="2.12598" transform="rotate(90 55.437 50.8661)" stroke="white" stroke-width="4.53782" mask="url(#path-9-inside-6_110_410)"/>
<mask id="path-10-inside-7_110_410" fill="white">
<rect x="69.4922" y="50.8661" width="25.4331" height="12.0472" rx="2.12598" transform="rotate(90 69.4922 50.8661)"/>
</mask>
<rect x="69.4922" y="50.8661" width="25.4331" height="12.0472" rx="2.12598" transform="rotate(90 69.4922 50.8661)" stroke="white" stroke-width="4.53782" mask="url(#path-10-inside-7_110_410)"/>
</g>
<defs>
<clipPath id="clip0_110_410">
<rect width="85" height="85" fill="white"/>
</clipPath>
</defs>
</svg>
