<svg width="85" height="85" viewBox="0 0 85 85" fill="none" xmlns="http://www.w3.org/2000/svg">
<g clip-path="url(#clip0_110_411)">
<path d="M46.9587 54.6429H53.0302V60.7143H46.9587V54.6429Z" fill="white"/>
<path d="M33.2981 27.3214H39.3695V36.4286H33.2981V27.3214Z" fill="white"/>
<path d="M16.6016 54.6429H22.673V60.7143H16.6016V54.6429Z" fill="white"/>
<path d="M62.1372 54.6429H68.2086V75.8929H62.1372V54.6429Z" fill="white"/>
<path d="M46.9587 69.8214H53.0302V75.8928H46.9587V69.8214Z" fill="white"/>
<path d="M31.78 54.6429H37.8515V60.7143H31.78V54.6429Z" fill="white"/>
<path d="M31.78 69.8214H37.8515V75.8928H31.78V69.8214Z" fill="white"/>
<path d="M16.6016 42.5H68.2087V6.07141H16.6016V42.5ZM24.1908 22.7678C24.1908 22.4002 24.3243 22.045 24.5663 21.7683L35.1913 9.62547C35.4443 9.33664 35.7973 9.15441 36.1793 9.11547C36.2199 9.11016 49.9944 9.10713 49.9944 9.10713C50.2108 9.10712 50.4246 9.15336 50.6217 9.24276C50.8187 9.33216 50.9943 9.46265 51.1368 9.62547L61.7618 21.7683C62.0216 22.067 62.1543 22.4555 62.1314 22.8508C62.1354 22.8893 62.1374 22.9281 62.1373 22.9669V37.9464C62.1373 38.349 61.9774 38.735 61.6927 39.0197C61.4081 39.3044 61.022 39.4643 60.6194 39.4643H25.7087C25.3061 39.4643 24.9201 39.3044 24.6354 39.0197C24.3508 38.735 24.1908 38.349 24.1908 37.9464V22.7678Z" fill="white"/>
<path d="M71.2443 0H15.0836C13.8764 0.001406 12.7189 0.481607 11.8653 1.33526C11.0116 2.18892 10.5314 3.34632 10.53 4.55357V80.4464C10.5314 81.6537 11.0116 82.8111 11.8653 83.6647C12.7189 84.5184 13.8764 84.9986 15.0836 85H71.2443C72.4516 84.9986 73.609 84.5184 74.4626 83.6647C75.3163 82.8111 75.7965 81.6537 75.7979 80.4464V4.55357C75.7965 3.34632 75.3163 2.18892 74.4626 1.33526C73.609 0.481607 72.4516 0.001406 71.2443 0ZM25.7086 77.4107C25.7086 77.8133 25.5487 78.1993 25.264 78.484C24.9794 78.7687 24.5933 78.9286 24.1907 78.9286H15.0836C14.681 78.9286 14.295 78.7687 14.0103 78.484C13.7257 78.1993 13.5657 77.8133 13.5657 77.4107V68.3036C13.5657 67.901 13.7257 67.5149 14.0103 67.2303C14.295 66.9456 14.681 66.7857 15.0836 66.7857H24.1907C24.5933 66.7857 24.9794 66.9456 25.264 67.2303C25.5487 67.5149 25.7086 67.901 25.7086 68.3036V77.4107ZM25.7086 62.2321C25.7086 62.6347 25.5487 63.0208 25.264 63.3054C24.9794 63.5901 24.5933 63.75 24.1907 63.75H15.0836C14.681 63.75 14.295 63.5901 14.0103 63.3054C13.7257 63.0208 13.5657 62.6347 13.5657 62.2321V53.125C13.5657 52.7224 13.7257 52.3364 14.0103 52.0517C14.295 51.7671 14.681 51.6071 15.0836 51.6071H24.1907C24.5933 51.6071 24.9794 51.7671 25.264 52.0517C25.5487 52.3364 25.7086 52.7224 25.7086 53.125V62.2321ZM40.8872 77.4107C40.8872 77.8133 40.7273 78.1993 40.4426 78.484C40.158 78.7687 39.7719 78.9286 39.3693 78.9286H30.2622C29.8596 78.9286 29.4735 78.7687 29.1889 78.484C28.9042 78.1993 28.7443 77.8133 28.7443 77.4107V68.3036C28.7443 67.901 28.9042 67.5149 29.1889 67.2303C29.4735 66.9456 29.8596 66.7857 30.2622 66.7857H39.3693C39.7719 66.7857 40.158 66.9456 40.4426 67.2303C40.7273 67.5149 40.8872 67.901 40.8872 68.3036V77.4107ZM40.8872 62.2321C40.8872 62.6347 40.7273 63.0208 40.4426 63.3054C40.158 63.5901 39.7719 63.75 39.3693 63.75H30.2622C29.8596 63.75 29.4735 63.5901 29.1889 63.3054C28.9042 63.0208 28.7443 62.6347 28.7443 62.2321V53.125C28.7443 52.7224 28.9042 52.3364 29.1889 52.0517C29.4735 51.7671 29.8596 51.6071 30.2622 51.6071H39.3693C39.7719 51.6071 40.158 51.7671 40.4426 52.0517C40.7273 52.3364 40.8872 52.7224 40.8872 53.125V62.2321ZM56.0657 77.4107C56.0657 77.8133 55.9058 78.1993 55.6212 78.484C55.3365 78.7687 54.9504 78.9286 54.5479 78.9286H45.4407C45.0382 78.9286 44.6521 78.7687 44.3675 78.484C44.0828 78.1993 43.9229 77.8133 43.9229 77.4107V68.3036C43.9229 67.901 44.0828 67.5149 44.3675 67.2303C44.6521 66.9456 45.0382 66.7857 45.4407 66.7857H54.5479C54.9504 66.7857 55.3365 66.9456 55.6212 67.2303C55.9058 67.5149 56.0657 67.901 56.0657 68.3036V77.4107ZM56.0657 62.2321C56.0657 62.6347 55.9058 63.0208 55.6212 63.3054C55.3365 63.5901 54.9504 63.75 54.5479 63.75H45.4407C45.0382 63.75 44.6521 63.5901 44.3675 63.3054C44.0828 63.0208 43.9229 62.6347 43.9229 62.2321V53.125C43.9229 52.7224 44.0828 52.3364 44.3675 52.0517C44.6521 51.7671 45.0382 51.6071 45.4407 51.6071H54.5479C54.9504 51.6071 55.3365 51.7671 55.6212 52.0517C55.9058 52.3364 56.0657 52.7224 56.0657 53.125V62.2321ZM71.2443 77.4107C71.2443 77.8133 71.0844 78.1993 70.7997 78.484C70.5151 78.7687 70.129 78.9286 69.7265 78.9286H60.6193C60.2168 78.9286 59.8307 78.7687 59.546 78.484C59.2614 78.1993 59.1015 77.8133 59.1015 77.4107V53.125C59.1015 52.7224 59.2614 52.3364 59.546 52.0517C59.8307 51.7671 60.2168 51.6071 60.6193 51.6071H69.7265C70.129 51.6071 70.5151 51.7671 70.7997 52.0517C71.0844 52.3364 71.2443 52.7224 71.2443 53.125V77.4107ZM71.2443 44.0179C71.2443 44.4204 71.0844 44.8065 70.7997 45.0911C70.5151 45.3758 70.129 45.5357 69.7265 45.5357H15.0836C14.681 45.5357 14.295 45.3758 14.0103 45.0911C13.7257 44.8065 13.5657 44.4204 13.5657 44.0179V4.55357C13.5657 4.15101 13.7257 3.76494 14.0103 3.48028C14.295 3.19563 14.681 3.03571 15.0836 3.03571H69.7265C70.129 3.03571 70.5151 3.19563 70.7997 3.48028C71.0844 3.76494 71.2443 4.15101 71.2443 4.55357V44.0179Z" fill="white"/>
<path d="M30.2623 25.8036C30.2623 25.401 30.4222 25.0149 30.7068 24.7303C30.9915 24.4456 31.3776 24.2857 31.7801 24.2857H40.8873C41.2898 24.2857 41.6759 24.4456 41.9606 24.7303C42.2452 25.0149 42.4051 25.401 42.4051 25.8036V36.4286H45.4408V23.3382L36.3337 12.9301L27.2266 23.3382V36.4286H30.2623V25.8036Z" fill="white"/>
<path d="M16.6016 69.8214H22.673V75.8928H16.6016V69.8214Z" fill="white"/>
<path d="M57.2745 21.25L49.3057 12.1429H39.6787L47.6475 21.25H57.2745Z" fill="white"/>
<path d="M48.4766 24.2857H59.1016V36.4286H48.4766V24.2857Z" fill="white"/>
</g>
<defs>
<clipPath id="clip0_110_411">
<rect width="85" height="85" fill="white"/>
</clipPath>
</defs>
</svg>
