<?xml version="1.0" ?><svg data-name="Layer 1" id="Layer_1" viewBox="0 0 100 100" xmlns="http://www.w3.org/2000/svg"><title/><path d="M54.44965,7.03491l11.586.00012a.99988.99988,0,1,0,0-1.99975L52.03619,5.03516a.97932.97932,0,0,0-.68817.2799c-.00586.00562-.01379.00721-.01953.01294-.00751.00745-.00964.01783-.01691.02552a.97.97,0,0,0-.27594.68164h0v14a1,1,0,1,0,2,0V8.44946L91.79291,47.207a4.00032,4.00032,0,0,1-.00012,5.65723L59.32855,85.328a1,1,0,0,0,1.41419,1.41431v-.00012L93.20709,54.27832a6.00024,6.00024,0,0,0-.00018-8.48572Z"/><path d="M47.96436,79.03516a1,1,0,0,0-1,1V91.62109L8.20709,52.86414a4.00024,4.00024,0,0,1-.00006-5.657l32.46442-32.465a.99994.99994,0,1,0-1.41419-1.41407V13.328L6.79291,45.79285a6.00015,6.00015,0,0,0-.00012,8.48535L45.55011,93.035l-11.58575.00013a1,1,0,0,0,0,2l14-.00013.00207-.00036a.99559.99559,0,0,0,.99573-.98877l.0022-.01074v-14A1,1,0,0,0,47.96436,79.03516Z"/></svg>