<svg width="80" height="86" viewBox="0 0 80 86" fill="none" xmlns="http://www.w3.org/2000/svg">
<path d="M79.4645 55.7515C79.4645 59.3692 76.5598 62.3267 72.9421 62.3795H72.8629C69.1924 62.3795 66.2349 59.422 66.2349 55.7515C66.2349 54.4312 66.631 53.1373 67.3703 52.0282C67.6608 51.5793 68.2682 51.4737 68.7171 51.7641C69.166 52.0546 69.2716 52.6619 68.9811 53.1109C67.5288 55.2498 68.0833 58.1809 70.2486 59.6332C71.0144 60.1614 71.9387 60.4254 72.8629 60.4518H72.9421C75.5035 60.4254 77.5632 58.3129 77.5632 55.7515C77.5632 54.0879 76.6918 52.5563 75.2659 51.7113C74.0248 50.9719 73.259 49.6252 73.259 48.1728V43.8818C73.259 43.3495 73.6905 42.918 74.2228 42.918C74.7551 42.918 75.1866 43.3495 75.1866 43.8818V48.1728C75.1866 48.9386 75.5827 49.6516 76.2429 50.0477C78.2234 51.236 79.4645 53.4013 79.4645 55.7515Z" fill="white"/>
<path d="M17.161 17.1638L17.1705 17.1827L17.1809 17.201L19.2987 20.9013C19.3429 20.9784 19.3427 21.0732 19.2984 21.1503L19.9483 21.5246L19.2984 21.1503L17.2264 24.7478C17.1603 24.8243 17.1181 24.8963 17.0951 24.9376C17.0827 24.9599 17.0709 24.9825 17.0648 24.9941C17.064 24.9956 17.0633 24.997 17.0628 24.9981C17.0577 25.0078 17.0558 25.0112 17.0556 25.0117L14.9376 28.6556C14.8928 28.7325 14.8105 28.7799 14.7214 28.7799H6.02534C5.93592 28.7799 5.85332 28.7322 5.80869 28.6547L1.47295 21.1254C1.42848 21.0482 1.42848 20.9531 1.47295 20.8759L5.80869 13.3466C5.85331 13.2691 5.93592 13.2214 6.02534 13.2214H14.746C14.8353 13.2214 14.9179 13.269 14.9625 13.3463L17.1183 17.0784L17.161 17.1638ZM17.2751 24.6953C17.2747 24.6958 17.2742 24.6962 17.2738 24.6967C17.2742 24.6962 17.2747 24.6958 17.2751 24.6953L17.2751 24.6953Z" stroke="white" stroke-width="1.5"/>
<path d="M6.39502 1.85257C6.39502 1.7145 6.50695 1.60257 6.64502 1.60257H13.645C13.7831 1.60257 13.895 1.7145 13.895 1.85257V12.8526C13.895 12.9906 13.7831 13.1026 13.645 13.1026H6.64502C6.50695 13.1026 6.39502 12.9906 6.39502 12.8526V1.85257Z" stroke="white" stroke-width="1.5"/>
<path d="M73.9561 27.6947C73.9561 27.5766 74.0518 27.4808 74.1699 27.4808C74.288 27.4808 74.3837 27.5766 74.3837 27.6947V33.6097C74.3837 33.7278 74.288 33.8235 74.1699 33.8235C74.0518 33.8235 73.9561 33.7278 73.9561 33.6097V27.6947Z" stroke="white" stroke-width="1.5"/>
<path d="M76.8583 37.2512C77.0254 37.2512 77.1454 37.4119 77.098 37.5721L76.3694 40.0348C76.338 40.141 76.2405 40.2139 76.1297 40.2139H72.2104C72.0996 40.2139 72.0021 40.141 71.9706 40.0348L71.242 37.5721C71.1946 37.4119 71.3147 37.2512 71.4818 37.2512H76.8583Z" stroke="white" stroke-width="1.5"/>
<path d="M27.1113 77.5598C27.1113 77.4217 27.2233 77.3098 27.3613 77.3098H40.9675C41.1056 77.3098 41.2175 77.4217 41.2175 77.5598V84.8548C41.2175 84.9929 41.1056 85.1048 40.9675 85.1048H27.3613C27.2233 85.1048 27.1113 84.9929 27.1113 84.8548V77.5598Z" stroke="white" stroke-width="1.5"/>
<path d="M44.6187 77.5598C44.6187 77.4217 44.7306 77.3098 44.8687 77.3098H58.4484C58.5865 77.3098 58.6984 77.4217 58.6984 77.5598V84.8548C58.6984 84.9929 58.5865 85.1048 58.4484 85.1048H44.8687C44.7306 85.1048 44.6187 84.9929 44.6187 84.8548V77.5598Z" stroke="white" stroke-width="1.5"/>
<path d="M27.1113 55.1143C27.1113 54.9762 27.2233 54.8643 27.3613 54.8643H40.9675C41.1056 54.8643 41.2175 54.9762 41.2175 55.1143V62.383C41.2175 62.521 41.1056 62.633 40.9675 62.633H27.3613C27.2233 62.633 27.1113 62.521 27.1113 62.383V55.1143Z" stroke="white" stroke-width="1.5"/>
<path d="M44.6187 55.1143C44.6187 54.9762 44.7306 54.8643 44.8687 54.8643H58.4484C58.5865 54.8643 58.6984 54.9762 58.6984 55.1143V62.383C58.6984 62.521 58.5865 62.633 58.4484 62.633H44.8687C44.7306 62.633 44.6187 62.521 44.6187 62.383V55.1143Z" stroke="white" stroke-width="1.5"/>
<path d="M27.1113 66.337C27.1113 66.199 27.2233 66.087 27.3613 66.087H35.1053C35.2434 66.087 35.3553 66.199 35.3553 66.337V73.6321C35.3553 73.7702 35.2434 73.8821 35.1053 73.8821H27.3613C27.2233 73.8821 27.1113 73.7702 27.1113 73.6321V66.337Z" stroke="white" stroke-width="1.5"/>
<path d="M38.7827 66.337C38.7827 66.199 38.8946 66.087 39.0327 66.087H46.7767C46.9148 66.087 47.0267 66.199 47.0267 66.337V73.6321C47.0267 73.7702 46.9148 73.8821 46.7767 73.8821H39.0327C38.8946 73.8821 38.7827 73.7702 38.7827 73.6321V66.337Z" stroke="white" stroke-width="1.5"/>
<path d="M50.481 66.337C50.481 66.199 50.5929 66.087 50.731 66.087H58.4749C58.613 66.087 58.7249 66.199 58.7249 66.337V73.6321C58.7249 73.7702 58.613 73.8821 58.4749 73.8821H50.731C50.5929 73.8821 50.481 73.7702 50.481 73.6321V66.337Z" stroke="white" stroke-width="1.5"/>
<path d="M27.1113 43.8915C27.1113 43.7535 27.2233 43.6415 27.3613 43.6415H35.1053C35.2434 43.6415 35.3553 43.7535 35.3553 43.8915V51.1866C35.3553 51.3247 35.2434 51.4366 35.1053 51.4366H27.3613C27.2233 51.4366 27.1113 51.3247 27.1113 51.1866V43.8915Z" stroke="white" stroke-width="1.5"/>
<path d="M38.7827 43.8915C38.7827 43.7535 38.8946 43.6415 39.0327 43.6415H46.7767C46.9148 43.6415 47.0267 43.7535 47.0267 43.8915V51.1866C47.0267 51.3247 46.9148 51.4366 46.7767 51.4366H39.0327C38.8946 51.4366 38.7827 51.3247 38.7827 51.1866V43.8915Z" stroke="white" stroke-width="1.5"/>
<path d="M50.481 43.8915C50.481 43.7535 50.5929 43.6415 50.731 43.6415H58.4749C58.613 43.6415 58.7249 43.7535 58.7249 43.8915V51.1866C58.7249 51.3247 58.613 51.4366 58.4749 51.4366H50.731C50.5929 51.4366 50.481 51.3247 50.481 51.1866V43.8915Z" stroke="white" stroke-width="1.5"/>
<path d="M12.9872 77.2427C13.1017 77.3423 13.1017 77.5201 12.9872 77.6198L7.13926 82.7114C6.97749 82.8522 6.7251 82.7373 6.7251 82.5228V72.3396C6.7251 72.1251 6.97749 72.0102 7.13926 72.1511L12.9872 77.2427Z" stroke="white" stroke-width="1.5"/>
<path d="M13.6302 81.6105C13.7919 81.4692 14.0448 81.584 14.0448 81.7987V84.8284C14.0448 84.9665 13.9328 85.0784 13.7948 85.0784H10.3286C10.0977 85.0784 9.99023 84.7921 10.1641 84.6402L13.6302 81.6105Z" stroke="white" stroke-width="1.5"/>
<path d="M12.9335 58.4676C13.0481 58.5673 13.0481 58.7452 12.9335 58.8449L7.13917 63.885C6.97737 64.0258 6.7251 63.9108 6.7251 63.6964V53.6161C6.7251 53.4017 6.97737 53.2867 7.13917 53.4275L12.9335 58.4676Z" stroke="white" stroke-width="1.5"/>
<path d="M13.6303 62.7858C13.7919 62.6442 14.045 62.759 14.045 62.9738V73.0661C14.045 73.2807 13.7924 73.3955 13.6307 73.2544L7.85842 68.2175C7.74439 68.118 7.74423 67.9408 7.85808 67.8411L13.6303 62.7858Z" stroke="white" stroke-width="1.5"/>
<path d="M13.795 32.234C13.933 32.234 14.045 32.3459 14.045 32.484V35.6216C14.045 35.8362 13.7923 35.951 13.6306 35.8099L10.0355 32.6724C9.86144 32.5205 9.96887 32.234 10.1999 32.234H13.795Z" stroke="white" stroke-width="1.5"/>
<path d="M12.9335 39.7454C13.0481 39.8451 13.0481 40.023 12.9335 40.1227L7.13917 45.1628C6.97737 45.3036 6.7251 45.1886 6.7251 44.9742V34.8939C6.7251 34.6795 6.97737 34.5646 7.13917 34.7053L12.9335 39.7454Z" stroke="white" stroke-width="1.5"/>
<path d="M13.6303 44.0636C13.7919 43.922 14.045 44.0368 14.045 44.2517V54.3439C14.045 54.5585 13.7924 54.6734 13.6307 54.5323L7.85842 49.4953C7.74439 49.3958 7.74423 49.2186 7.85808 49.1189L13.6303 44.0636Z" stroke="white" stroke-width="1.5"/>
<path d="M59.5173 18.0274C59.7409 18.0274 59.852 18.2985 59.6928 18.4554L54.8882 23.1899C54.7917 23.285 54.6371 23.2859 54.5395 23.1921L49.6121 18.4576C49.4498 18.3017 49.5602 18.0274 49.7853 18.0274H59.5173Z" stroke="white" stroke-width="1.5"/>
<path d="M73.8893 23.5844C73.9622 23.6247 73.9905 23.6687 74.0045 23.7044C74.0211 23.7471 74.0262 23.8042 74.0104 23.8656C73.9945 23.9271 73.9624 23.9746 73.9272 24.0038C73.8977 24.0284 73.8516 24.0532 73.7683 24.0532H59.5108C59.2872 24.0532 59.176 23.7821 59.3353 23.6251L64.4599 18.5737L63.9334 18.0395L64.4599 18.5737C64.5388 18.4959 64.6595 18.4793 64.7564 18.5329L73.8893 23.5844Z" stroke="white" stroke-width="1.5"/>
<path d="M22.8375 21.9054L22.8425 21.8967L22.8473 21.8879C23.1328 21.3646 23.1188 20.7345 22.8597 20.2164L22.8492 20.1954L22.8375 20.1752L21.8084 18.4029C21.7116 18.2362 21.8319 18.0274 22.0246 18.0274H24.7422C24.807 18.0274 24.8693 18.0525 24.9159 18.0976L30.6356 23.6234C30.7973 23.7796 30.6868 24.0532 30.4619 24.0532H22.0246C21.8319 24.0532 21.7116 23.8443 21.8084 23.6777L22.8375 21.9054Z" stroke="white" stroke-width="1.5"/>
<path d="M40.135 18.0274C40.3586 18.0274 40.4697 18.2985 40.3104 18.4554L35.5058 23.1899C35.4094 23.285 35.2548 23.2859 35.1571 23.1921L30.2298 18.4576C30.0674 18.3017 30.1779 18.0274 30.403 18.0274H40.135Z" stroke="white" stroke-width="1.5"/>
<path d="M50.0342 23.6229C50.1965 23.7789 50.0861 24.0532 49.861 24.0532H40.129C39.9054 24.0532 39.7942 23.782 39.9535 23.6251L44.7581 18.8906C44.8546 18.7956 45.0092 18.7946 45.1068 18.8884L50.0342 23.6229Z" stroke="white" stroke-width="1.5"/>
</svg>
