<svg width="85" height="85" viewBox="0 0 85 85" fill="none" xmlns="http://www.w3.org/2000/svg">
<path d="M80.7849 53.96C80.7849 57.4499 77.9879 60.3029 74.5045 60.3539H74.4282C70.8939 60.3539 68.0461 57.5008 68.0461 53.96C68.0461 52.6863 68.4275 51.4381 69.1395 50.3682C69.4192 49.9351 70.004 49.8332 70.4362 50.1134C70.8685 50.3936 70.9702 50.9795 70.6905 51.4126C69.2921 53.476 69.826 56.3035 71.911 57.7046C72.6484 58.2141 73.5383 58.4688 74.4282 58.4943H74.5045C76.9709 58.4688 78.9541 56.4309 78.9541 53.96C78.9541 52.3551 78.1151 50.8776 76.742 50.0625C75.547 49.3492 74.8096 48.05 74.8096 46.649V41.5797H76.6658V46.649C76.6658 47.3877 77.0472 48.0755 77.6828 48.4576C79.5898 49.6039 80.7849 51.6928 80.7849 53.96Z" fill="white"/>
<path d="M23.7529 20.4619L21.4391 24.4868L21.4136 24.5123C21.3882 24.5377 21.3882 24.5632 21.3628 24.5887L18.9981 28.6645H9.51401L4.78467 20.4365L9.51401 12.2084H19.0235L21.3882 16.3097L21.4391 16.4116L23.7529 20.4619Z" fill="white"/>
<path d="M10.0227 1H18.5152V10.3998H10.0227V1Z" fill="white"/>
<path d="M74.7583 25.9642H76.6144V33.5299H74.7583V25.9642Z" fill="white"/>
<path d="M79.5644 35.3896L78.2931 39.6946H73.0807L71.8093 35.3896H79.5644Z" fill="white"/>
<path d="M29.6519 74.0331H44.679V82.9998H29.6519V74.0331Z" fill="white"/>
<path d="M46.51 74.0331H61.5117V82.9998H46.51V74.0331Z" fill="white"/>
<path d="M29.6519 52.3804H44.679V61.3217H29.6519V52.3804Z" fill="white"/>
<path d="M46.51 52.3804H61.5117V61.3217H46.51V52.3804Z" fill="white"/>
<path d="M29.6519 63.207H39.0343V72.1737H29.6519V63.207Z" fill="white"/>
<path d="M40.8904 63.207H50.2728V72.1737H40.8904V63.207Z" fill="white"/>
<path d="M52.1545 63.207H61.537V72.1737H52.1545V63.207Z" fill="white"/>
<path d="M29.6519 41.5541H39.0343V50.5209H29.6519V41.5541Z" fill="white"/>
<path d="M40.8904 41.5541H50.2728V50.5209H40.8904V41.5541Z" fill="white"/>
<path d="M52.1545 41.5541H61.537V50.5209H52.1545V41.5541Z" fill="white"/>
<path d="M18.0829 74.8738L10.0227 81.9046V67.8431L18.0829 74.8738Z" fill="white"/>
<path d="M18.5151 76.9627V82.9745H11.6499L18.5151 76.9627Z" fill="white"/>
<path d="M18.0321 56.762L10.0227 63.7418V49.7822L18.0321 56.762Z" fill="white"/>
<path d="M18.5149 58.7999V72.785L10.531 65.8052L18.5149 58.7999Z" fill="white"/>
<path d="M18.5153 30.5494V36.6631L11.5229 30.5494H18.5153Z" fill="white"/>
<path d="M18.0321 38.7011L10.0227 45.6809V31.7213L18.0321 38.7011Z" fill="white"/>
<path d="M18.5149 40.739V54.724L10.531 47.7442L18.5149 40.739Z" fill="white"/>
<path d="M63.9269 16.8447L56.9601 23.7226L49.8152 16.8447H63.9269Z" fill="white"/>
<path d="M79.0304 24.1047H59.2231L66.3426 17.0739L79.0304 24.1047Z" fill="white"/>
<path d="M25.6342 20.9459C25.7867 20.6657 25.7867 20.3091 25.6342 20.0034L23.8035 16.8447H28.482L35.9828 24.1047H23.8035L25.6342 20.9459Z" fill="white"/>
<path d="M45.2636 16.8447L38.2967 23.7226L31.1519 16.8447H45.2636Z" fill="white"/>
<path d="M54.6716 24.1047H40.5598L47.5267 17.2267L54.6716 24.1047Z" fill="white"/>
</svg>
