<svg width="85" height="85" viewBox="0 0 85 85" fill="none" xmlns="http://www.w3.org/2000/svg">
<path d="M80.9259 53.9599C80.9259 57.4498 78.1238 60.3029 74.6339 60.3538H74.5575C71.0166 60.3538 68.1636 57.5008 68.1636 53.9599C68.1636 52.6862 68.5457 51.438 69.259 50.3681C69.5392 49.9351 70.1251 49.8332 70.5581 50.1134C70.9912 50.3936 71.0931 50.9795 70.8129 51.4125C69.4118 53.4759 69.9467 56.3035 72.0356 57.7046C72.7743 58.214 73.6659 58.4688 74.5575 58.4942H74.6339C77.1049 58.4688 79.0918 56.4309 79.0918 53.9599C79.0918 52.3551 78.2512 50.8776 76.8756 50.0624C75.6783 49.3492 74.9396 48.05 74.9396 46.649V42.5095C74.9396 41.996 75.3559 41.5797 75.8694 41.5797C76.3829 41.5797 76.7992 41.996 76.7992 42.5095V46.649C76.7992 47.3877 77.1813 48.0755 77.8181 48.4576C79.7287 49.6039 80.9259 51.6928 80.9259 53.9599Z" fill="white"/>
<path d="M20.9454 24.0131C20.945 24.0135 20.9446 24.0139 20.9441 24.0143L20.9454 24.0131ZM20.9454 24.0131L20.9454 24.013C20.9454 24.013 20.9454 24.0131 20.9454 24.0131ZM22.9071 20.3435L23.4848 20.0128L22.9071 20.3435C22.9486 20.4161 22.9485 20.5053 22.9067 20.5778L20.9003 24.0615C20.8371 24.1344 20.7968 24.2032 20.7747 24.2429C20.7613 24.2669 20.7486 24.2914 20.7437 24.3008C20.7412 24.3055 20.7396 24.3087 20.7384 24.3108C20.7372 24.3131 20.7366 24.3141 20.7365 24.3143L18.6864 27.8415C18.6443 27.914 18.5668 27.9586 18.483 27.9586H10.0669C9.98271 27.9586 9.90496 27.9136 9.86297 27.8407L5.66681 20.5538C5.62496 20.4811 5.62496 20.3917 5.66681 20.319L9.86297 13.0321C9.90496 12.9592 9.98271 12.9142 10.0669 12.9142H18.5067C18.5908 12.9142 18.6684 12.9591 18.7105 13.0318L19.3155 12.6823L18.7105 13.0318L20.7972 16.6443L20.8386 16.7272L20.8475 16.7449L20.8574 16.7622L22.9071 20.3435ZM20.8763 24.1032C20.8764 24.103 20.8766 24.1027 20.8767 24.1024L20.8763 24.1032L21.2518 24.3195L20.8763 24.1032Z" stroke="white" stroke-width="1.41173"/>
<path d="M10.4195 1.94115C10.4195 1.81121 10.5248 1.70586 10.6548 1.70586H17.4546C17.5845 1.70586 17.6899 1.8112 17.6899 1.94115V12.5997C17.6899 12.7296 17.5845 12.835 17.4546 12.835H10.6548C10.5248 12.835 10.4195 12.7296 10.4195 12.5997V1.94115Z" stroke="white" stroke-width="1.41173"/>
<path d="M75.5943 26.894C75.5943 26.7703 75.6945 26.6701 75.8182 26.6701C75.9419 26.6701 76.0421 26.7703 76.0421 26.894V32.6001C76.0421 32.7238 75.9419 32.824 75.8182 32.824C75.6945 32.824 75.5943 32.7238 75.5943 32.6001V26.894Z" stroke="white" stroke-width="1.41173"/>
<path d="M78.4434 36.0954C78.6006 36.0954 78.7136 36.2466 78.669 36.3974L77.9522 38.8202C77.9227 38.9201 77.8308 38.9887 77.7266 38.9887H73.9106C73.8063 38.9887 73.7145 38.9201 73.6849 38.8202L72.9681 36.3974C72.9235 36.2466 73.0365 36.0954 73.1938 36.0954H78.4434Z" stroke="white" stroke-width="1.41173"/>
<path d="M30.4039 74.9743C30.4039 74.8443 30.5092 74.739 30.6391 74.739H43.8118C43.9418 74.739 44.0471 74.8443 44.0471 74.9743V82.0587C44.0471 82.1887 43.9418 82.294 43.8118 82.294H30.6391C30.5092 82.294 30.4039 82.1887 30.4039 82.0587V74.9743Z" stroke="white" stroke-width="1.41173"/>
<path d="M47.293 74.9743C47.293 74.8443 47.3984 74.739 47.5283 74.739H60.6755C60.8055 74.739 60.9108 74.8443 60.9108 74.9743V82.0587C60.9108 82.1887 60.8055 82.294 60.6755 82.294H47.5283C47.3984 82.294 47.293 82.1887 47.293 82.0587V74.9743Z" stroke="white" stroke-width="1.41173"/>
<path d="M30.4039 53.3216C30.4039 53.1917 30.5092 53.0864 30.6391 53.0864H43.8118C43.9418 53.0864 44.0471 53.1917 44.0471 53.3216V60.3806C44.0471 60.5106 43.9418 60.6159 43.8118 60.6159H30.6391C30.5092 60.6159 30.4039 60.5106 30.4039 60.3806V53.3216Z" stroke="white" stroke-width="1.41173"/>
<path d="M47.293 53.3216C47.293 53.1917 47.3984 53.0864 47.5283 53.0864H60.6755C60.8055 53.0864 60.9108 53.1917 60.9108 53.3216V60.3806C60.9108 60.5106 60.8055 60.6159 60.6755 60.6159H47.5283C47.3984 60.6159 47.293 60.5106 47.293 60.3806V53.3216Z" stroke="white" stroke-width="1.41173"/>
<path d="M30.4039 64.1481C30.4039 64.0181 30.5092 63.9128 30.6391 63.9128H38.1567C38.2866 63.9128 38.3919 64.0181 38.3919 64.1481V71.2325C38.3919 71.3625 38.2866 71.4678 38.1567 71.4678H30.6391C30.5092 71.4678 30.4039 71.3625 30.4039 71.2325V64.1481Z" stroke="white" stroke-width="1.41173"/>
<path d="M41.6631 64.1481C41.6631 64.0181 41.7685 63.9128 41.8984 63.9128H49.4159C49.5459 63.9128 49.6512 64.0181 49.6512 64.1481V71.2325C49.6512 71.3625 49.5459 71.4678 49.4159 71.4678H41.8984C41.7685 71.4678 41.6631 71.3625 41.6631 71.2325V64.1481Z" stroke="white" stroke-width="1.41173"/>
<path d="M52.9483 64.1481C52.9483 64.0181 53.0536 63.9128 53.1836 63.9128H60.7011C60.831 63.9128 60.9364 64.0181 60.9364 64.1481V71.2325C60.9364 71.3625 60.831 71.4678 60.7011 71.4678H53.1836C53.0536 71.4678 52.9483 71.3625 52.9483 71.2325V64.1481Z" stroke="white" stroke-width="1.41173"/>
<path d="M30.4039 42.4953C30.4039 42.3653 30.5092 42.26 30.6391 42.26H38.1567C38.2866 42.26 38.3919 42.3653 38.3919 42.4953V49.5797C38.3919 49.7097 38.2866 49.815 38.1567 49.815H30.6391C30.5092 49.815 30.4039 49.7097 30.4039 49.5797V42.4953Z" stroke="white" stroke-width="1.41173"/>
<path d="M41.6631 42.4953C41.6631 42.3653 41.7685 42.26 41.8984 42.26H49.4159C49.5459 42.26 49.6512 42.3653 49.6512 42.4953V49.5797C49.6512 49.7097 49.5459 49.815 49.4159 49.815H41.8984C41.7685 49.815 41.6631 49.7097 41.6631 49.5797V42.4953Z" stroke="white" stroke-width="1.41173"/>
<path d="M52.9483 42.4953C52.9483 42.3653 53.0536 42.26 53.1836 42.26H60.7011C60.831 42.26 60.9364 42.3653 60.9364 42.4953V49.5797C60.9364 49.7097 60.831 49.815 60.7011 49.815H53.1836C53.0536 49.815 52.9483 49.7097 52.9483 49.5797V42.4953Z" stroke="white" stroke-width="1.41173"/>
<path d="M16.8289 74.6964C16.9366 74.7902 16.9366 74.9575 16.8289 75.0513L11.1281 80.0148C10.9759 80.1473 10.7383 80.0392 10.7383 79.8373V69.9104C10.7383 69.7085 10.9759 69.6004 11.1281 69.733L16.8289 74.6964Z" stroke="white" stroke-width="1.41173"/>
<path d="M17.4445 78.8582C17.5967 78.7252 17.8346 78.8333 17.8346 79.0353V82.0334C17.8346 82.1633 17.7293 82.2687 17.5994 82.2687H14.1694C13.9521 82.2687 13.851 81.9992 14.0146 81.8562L17.4445 78.8582Z" stroke="white" stroke-width="1.41173"/>
<path d="M16.7771 56.5845C16.8849 56.6783 16.8849 56.8457 16.7771 56.9395L11.128 61.8533C10.9758 61.9858 10.7383 61.8776 10.7383 61.6758V51.8482C10.7383 51.6464 10.9758 51.5382 11.128 51.6707L16.7771 56.5845Z" stroke="white" stroke-width="1.41173"/>
<path d="M17.4443 60.6982C17.5964 60.565 17.8346 60.673 17.8346 60.8752V70.7146C17.8346 70.9166 17.5969 71.0247 17.4447 70.8919L11.817 65.9811C11.7097 65.8875 11.7095 65.7207 11.8167 65.6269L17.4443 60.6982Z" stroke="white" stroke-width="1.41173"/>
<path d="M17.5995 31.2554C17.7295 31.2554 17.8348 31.3608 17.8348 31.4907V34.5927C17.8348 34.7947 17.597 34.9028 17.4448 34.77L13.8904 31.668C13.7266 31.525 13.8277 31.2554 14.0451 31.2554H17.5995Z" stroke="white" stroke-width="1.41173"/>
<path d="M16.7771 38.5236C16.8849 38.6174 16.8849 38.7849 16.7771 38.8787L11.128 43.7925C10.9758 43.9249 10.7383 43.8168 10.7383 43.6149V33.7874C10.7383 33.5856 10.9758 33.4774 11.128 33.6099L16.7771 38.5236Z" stroke="white" stroke-width="1.41173"/>
<path d="M17.4443 42.6373C17.5964 42.5041 17.8346 42.6121 17.8346 42.8143V52.6537C17.8346 52.8557 17.5969 52.9638 17.4447 52.831L11.817 47.9202C11.7097 47.8266 11.7095 47.6598 11.8167 47.5659L17.4443 42.6373Z" stroke="white" stroke-width="1.41173"/>
<path d="M61.7409 17.5505C61.9513 17.5505 62.0559 17.8057 61.906 17.9534L57.2139 22.577C57.1231 22.6665 56.9777 22.6674 56.8858 22.5791L52.0738 17.9555C51.921 17.8087 52.0249 17.5505 52.2368 17.5505H61.7409Z" stroke="white" stroke-width="1.41173"/>
<path d="M75.6361 22.9576C75.7046 22.9955 75.7313 23.0369 75.7445 23.0706C75.7601 23.1107 75.7649 23.1645 75.75 23.2223C75.7351 23.2801 75.7048 23.3248 75.6717 23.3523C75.6439 23.3754 75.6005 23.3987 75.5222 23.3987H61.6197C61.4092 23.3987 61.3046 23.1436 61.4545 22.9959L66.4516 18.0702C66.5258 17.997 66.6394 17.9814 66.7306 18.0319L75.6361 22.9576Z" stroke="white" stroke-width="1.41173"/>
<path d="M26.2839 21.3004L26.2886 21.2922L26.2931 21.2839C26.5655 20.7845 26.5524 20.1828 26.3048 19.6877L26.295 19.668L26.2839 19.649L25.2707 17.904C25.1796 17.7471 25.2927 17.5505 25.4741 17.5505H28.1462C28.2072 17.5505 28.2658 17.5742 28.3096 17.6166L33.876 22.9943C34.0282 23.1413 33.9241 23.3988 33.7126 23.3988H25.4741C25.2927 23.3988 25.1796 23.2022 25.2707 23.0454L26.2839 21.3004Z" stroke="white" stroke-width="1.41173"/>
<path d="M43.0429 17.5505C43.2533 17.5505 43.3579 17.8057 43.208 17.9534L38.5159 22.577C38.4251 22.6665 38.2797 22.6674 38.1878 22.5791L33.3758 17.9555C33.223 17.8087 33.3269 17.5505 33.5388 17.5505H43.0429Z" stroke="white" stroke-width="1.41173"/>
<path d="M52.5896 22.9938C52.7423 23.1406 52.6384 23.3988 52.4265 23.3988H42.9224C42.712 23.3988 42.6074 23.1436 42.7573 22.9959L47.4494 18.3723C47.5402 18.2828 47.6857 18.2819 47.7776 18.3702L52.5896 22.9938Z" stroke="white" stroke-width="1.41173"/>
</svg>
