<svg width="60" height="60" viewBox="0 0 60 60" fill="none" xmlns="http://www.w3.org/2000/svg">
<path d="M29.6276 5.56152H6.62162C5.86002 5.56152 5.12961 5.86407 4.59108 6.4026C4.05254 6.94114 3.75 7.67154 3.75 8.43315V55.8149C3.75 56.5765 4.05254 57.3069 4.59108 57.8454C5.12961 58.384 5.86002 58.6865 6.62162 58.6865H54.0034C54.765 58.6865 55.4954 58.384 56.0339 57.8454C56.5725 57.3069 56.875 56.5765 56.875 55.8149V8.43315C56.875 7.67154 56.5725 6.94114 56.0339 6.4026C55.4954 5.86407 54.765 5.56152 54.0034 5.56152H46.899" stroke="#FF8A00" stroke-width="1.43581" stroke-linecap="round" stroke-linejoin="round"/>
<path d="M45.8049 33.6442L56.875 31.9384M3.75 40.1254L32.2078 35.739M21.5655 37.3802L16.1956 5.56258M38.264 2.5C36.4625 2.5 34.6785 2.85487 33.0141 3.54434C31.3497 4.23381 29.8374 5.24438 28.5636 6.51834C27.2898 7.7923 26.2794 9.3047 25.5901 10.9692C24.9008 12.6337 24.5461 14.4176 24.5463 16.2192C24.5463 26.9547 35.0464 39.8957 37.7658 43.066C37.844 43.1575 37.9412 43.231 38.0507 43.2811C38.1601 43.3313 38.2792 43.357 38.3996 43.3565C38.52 43.3559 38.6389 43.3291 38.7479 43.278C38.8569 43.2268 38.9534 43.1525 39.0307 43.0602C41.7042 39.8785 51.9818 26.9476 51.9818 16.2192C51.9819 14.4176 51.6273 12.6337 50.938 10.9692C50.2487 9.3047 49.2383 7.7923 47.9644 6.51834C46.6906 5.24438 45.1783 4.23381 43.5139 3.54434C41.8495 2.85487 40.0656 2.5 38.264 2.5ZM38.264 21.345C37.2502 21.345 36.2592 21.0444 35.4163 20.4812C34.5733 19.9179 33.9163 19.1174 33.5284 18.1807C33.1404 17.2441 33.0389 16.2135 33.2367 15.2192C33.4344 14.2249 33.9226 13.3115 34.6395 12.5947C35.3564 11.8778 36.2697 11.3896 37.264 11.1918C38.2583 10.994 39.289 11.0955 40.2256 11.4835C41.1622 11.8715 41.9628 12.5285 42.526 13.3714C43.0892 14.2143 43.3899 15.2054 43.3899 16.2192C43.3899 16.8923 43.2573 17.5589 42.9997 18.1807C42.7421 18.8026 42.3645 19.3677 41.8885 19.8437C41.4126 20.3197 40.8475 20.6972 40.2256 20.9548C39.6037 21.2124 38.9372 21.345 38.264 21.345Z" stroke="#FF8A00" stroke-width="1.43581" stroke-linecap="round" stroke-linejoin="round"/>
</svg>
