<svg width="85" height="85" viewBox="0 0 85 85" fill="none" xmlns="http://www.w3.org/2000/svg">
<g clip-path="url(#clip0_110_330)">
<path d="M75.0391 30.6219H80.0195V35.6024H75.0391V30.6219Z" fill="white"/>
<path d="M80.0195 25.6414H85V30.6219H80.0195V25.6414Z" fill="white"/>
<path d="M70.0586 25.6414H75.0391V30.6219H70.0586V25.6414Z" fill="white"/>
<path d="M75.0391 20.661H80.0195V25.6414H75.0391V20.661Z" fill="white"/>
<path d="M4.98047 19.9969H9.96094V24.9774H4.98047V19.9969Z" fill="white"/>
<path d="M9.96094 15.0165H14.9414V19.9969H9.96094V15.0165Z" fill="white"/>
<path d="M0 15.0165H4.98047V19.9969H0V15.0165Z" fill="white"/>
<path d="M4.98047 10.036H9.96094V15.0165H4.98047V10.036Z" fill="white"/>
<path d="M74.2963 55.2775L81.8519 60.6294L72.4075 73.5368H59.1852M74.2963 55.2775L59.1852 73.5368M74.2963 55.2775L68.6297 39.8516L53.5186 42.6849M59.1852 73.5368H43.1297M43.1297 73.5368L36.8334 39.222L28.963 35.632M43.1297 73.5368H21.4075M43.1297 73.5368L53.5186 42.6849M21.4075 73.5368H12.5926L3.14819 63.7775L10.7037 52.6391M21.4075 73.5368L10.7037 52.6391M10.7037 52.6391L8.18523 47.722L18.8889 31.0368L28.963 35.632M28.963 35.632L26.7593 23.4812L42.1852 10.8886L56.6667 23.4812L53.5186 42.6849" stroke="white" stroke-width="1.25926"/>
</g>
<defs>
<clipPath id="clip0_110_330">
<rect width="85" height="85" fill="white"/>
</clipPath>
</defs>
</svg>
