<svg width="85" height="85" viewBox="0 0 85 85" fill="none" xmlns="http://www.w3.org/2000/svg">
<g clip-path="url(#clip0_550_316)">
<path d="M0 76.0103L8.03848 84.8174H13.9121L5.15313 68.0249L0 76.0103Z" fill="white"/>
<path d="M80.1276 69.0642L67.1086 84.8174H76.3524L85.0001 72.0711L80.1276 69.0642Z" fill="white"/>
<path d="M53.1301 50.8423L56.4206 29.5143L41.7913 17L27.1736 29.5043L29.1276 41.4873L37.6226 44.967L42.8023 77.7484L53.1119 50.9552L53.1301 50.8423Z" fill="white"/>
<path d="M71.9845 51.1561L57.3536 53.799L45.4187 84.8174H60.649L76.8604 65.1993L71.9845 51.1561Z" fill="white"/>
<path d="M15.3382 41.2234L5.37891 57.6822L19.5284 84.8174H38.8775L33.14 48.5131L15.3382 41.2234Z" fill="white"/>
<path d="M75.0391 20.5859H80.0195V25.5664H75.0391V20.5859Z" fill="white"/>
<path d="M80.0195 15.6055H85V20.5859H80.0195V15.6055Z" fill="white"/>
<path d="M70.0586 15.6055H75.0391V20.5859H70.0586V15.6055Z" fill="white"/>
<path d="M75.0391 10.625H80.0195V15.6055H75.0391V10.625Z" fill="white"/>
<path d="M4.98047 9.96094H9.96094V14.9414H4.98047V9.96094Z" fill="white"/>
<path d="M9.96094 4.98047H14.9414V9.96094H9.96094V4.98047Z" fill="white"/>
<path d="M0 4.98047H4.98047V9.96094H0V4.98047Z" fill="white"/>
<path d="M4.98047 0H9.96094V4.98047H4.98047V0Z" fill="white"/>
</g>
<defs>
<clipPath id="clip0_550_316">
<rect width="85" height="85" fill="white"/>
</clipPath>
</defs>
</svg>
