<svg width="101" height="80" viewBox="0 0 101 80" fill="#ffffff" xmlns="http://www.w3.org/2000/svg">
<path d="M90.2783 56.5205L99.6876 63.1854L87.9259 79.2596H71.4596M90.2783 56.5205L71.4596 79.2596M90.2783 56.5205L83.2213 37.3098L64.4026 40.8383M71.4596 79.2596H51.4648M51.4648 79.2596L43.6237 36.5256L33.8223 32.0548M51.4648 79.2596H24.413M51.4648 79.2596L64.4026 40.8383M24.413 79.2596H13.4355L1.67383 67.1059L11.0831 53.2347M24.413 79.2596L11.0831 53.2347M11.0831 53.2347L7.94671 47.1111L21.2766 26.3322L33.8223 32.0548M33.8223 32.0548L31.078 16.9229L50.2887 1.24069L68.3232 16.9229L64.4026 40.8383" stroke="white" stroke-width="1.5"/>
</svg>
