<svg width="85" height="85" viewBox="0 0 85 85" fill="none" xmlns="http://www.w3.org/2000/svg">
<g clip-path="url(#clip0_110_329)">
<path d="M0 67.6016L8.03848 76.4087H13.9121L5.15313 59.6162L0 67.6016Z" fill="white"/>
<path d="M80.1276 60.6555L67.1086 76.4087H76.3524L85.0001 63.6623L80.1276 60.6555Z" fill="white"/>
<path d="M53.1301 42.4336L56.4206 21.1056L41.7913 8.59131L27.1736 21.0956L29.1276 33.0786L37.6226 36.5583L42.8023 69.3397L53.1119 42.5465L53.1301 42.4336Z" fill="white"/>
<path d="M71.9845 42.7474L57.3536 45.3903L45.4187 76.4087H60.649L76.8604 56.7906L71.9845 42.7474Z" fill="white"/>
<path d="M15.3382 32.8147L5.37891 49.2735L19.5284 76.4087H38.8775L33.14 40.1044L15.3382 32.8147Z" fill="white"/>
<path d="M75.0391 30.4592H80.0195V35.4397H75.0391V30.4592Z" fill="white"/>
<path d="M80.0195 25.4788H85V30.4592H80.0195V25.4788Z" fill="white"/>
<path d="M70.0586 25.4788H75.0391V30.4592H70.0586V25.4788Z" fill="white"/>
<path d="M75.0391 20.4983H80.0195V25.4788H75.0391V20.4983Z" fill="white"/>
<path d="M4.98047 19.8342H9.96094V24.8147H4.98047V19.8342Z" fill="white"/>
<path d="M9.96094 14.8538H14.9414V19.8342H9.96094V14.8538Z" fill="white"/>
<path d="M0 14.8538H4.98047V19.8342H0V14.8538Z" fill="white"/>
<path d="M4.98047 9.87329H9.96094V14.8538H4.98047V9.87329Z" fill="white"/>
</g>
<defs>
<clipPath id="clip0_110_329">
<rect width="85" height="85" fill="white"/>
</clipPath>
</defs>
</svg>
