<svg width="85" height="85" viewBox="0 0 85 85" fill="none" xmlns="http://www.w3.org/2000/svg">
<g clip-path="url(#clip0_550_317)">
<path d="M75.0391 20.5859H80.0195V25.5664H75.0391V20.5859Z" fill="white"/>
<path d="M80.0195 15.6054H85V20.5859H80.0195V15.6054Z" fill="white"/>
<path d="M70.0586 15.6054H75.0391V20.5859H70.0586V15.6054Z" fill="white"/>
<path d="M75.0391 10.625H80.0195V15.6054H75.0391V10.625Z" fill="white"/>
<path d="M4.98047 9.96094H9.96094V14.9414H4.98047V9.96094Z" fill="white"/>
<path d="M9.96094 4.98047H14.9414V9.96094H9.96094V4.98047Z" fill="white"/>
<path d="M0 4.98047H4.98047V9.96094H0V4.98047Z" fill="white"/>
<path d="M4.98047 0H9.96094V4.98047H4.98047V0Z" fill="white"/>
<path d="M76.3571 64.4724L84.4375 70.196L74.337 84H60.1963M76.3571 64.4724L60.1963 84M76.3571 64.4724L70.2968 47.9749L54.1359 51.005M60.1963 84H43.0254M43.0254 84L36.2917 47.3015L27.8746 43.4621M43.0254 84H19.7942M43.0254 84L54.1359 51.005M19.7942 84H10.3671L0.266602 73.5628L8.347 61.6506M19.7942 84L8.347 61.6506M8.347 61.6506L5.65354 56.392L17.1008 38.5477L27.8746 43.4621M27.8746 43.4621L25.5179 30.4673L42.0153 17L57.5028 30.4673L54.1359 51.005" stroke="white" stroke-width="1.34673"/>
</g>
<defs>
<clipPath id="clip0_550_317">
<rect width="85" height="85" fill="white"/>
</clipPath>
</defs>
</svg>
