<svg width="85" height="85" viewBox="0 0 85 85" fill="none" xmlns="http://www.w3.org/2000/svg">
<path d="M5.3125 69.0625H79.6875V76.1458H5.3125V69.0625Z" stroke="white" stroke-width="2" stroke-linecap="round" stroke-linejoin="round"/>
<path d="M12.396 76.1458H23.021V83.2291H12.396V76.1458Z" stroke="white" stroke-width="2" stroke-linecap="round" stroke-linejoin="round"/>
<path d="M61.9792 76.1458H72.6042V83.2291H61.9792V76.1458Z" stroke="white" stroke-width="2" stroke-linecap="round" stroke-linejoin="round"/>
<path d="M70.8334 51.3541H69.0626V21.25L56.6667 8.85413H28.3334L15.9376 21.25V51.3541H14.1667C12.7578 51.3541 11.4065 51.9138 10.4102 52.9101C9.41396 53.9064 8.85425 55.2577 8.85425 56.6666V69.0625H76.1459V56.6666C76.1459 55.2577 75.5862 53.9064 74.5899 52.9101C73.5936 51.9138 72.2424 51.3541 70.8334 51.3541Z" stroke="white" stroke-width="2" stroke-linecap="round" stroke-linejoin="round"/>
<path d="M23.021 23.0208H61.9793V37.1875H23.021V23.0208Z" stroke="white" stroke-width="2" stroke-linecap="round" stroke-linejoin="round"/>
<path d="M30.1042 47.8125H54.8959V69.0625H30.1042V47.8125Z" stroke="white" stroke-width="2" stroke-linecap="round" stroke-linejoin="round"/>
<path d="M30.1042 54.8958H54.8959" stroke="white" stroke-width="2" stroke-linecap="round" stroke-linejoin="round"/>
<path d="M30.1042 61.9791H54.8959" stroke="white" stroke-width="2" stroke-linecap="round" stroke-linejoin="round"/>
<path d="M15.9375 58.4375H23.0208V61.9792H15.9375V58.4375Z" stroke="white" stroke-width="2" stroke-linecap="round" stroke-linejoin="round"/>
<path d="M61.9792 58.4375H69.0626V61.9792H61.9792V58.4375Z" stroke="white" stroke-width="2" stroke-linecap="round" stroke-linejoin="round"/>
<path d="M42.5 23.0208V37.1875" stroke="white" stroke-width="2" stroke-linecap="round" stroke-linejoin="round"/>
<path d="M76.146 26.5625H79.6877V33.6458H76.146V26.5625Z" stroke="white" stroke-width="2" stroke-linecap="round" stroke-linejoin="round"/>
<path d="M5.3125 26.5625H8.85417V33.6458H5.3125V26.5625Z" stroke="white" stroke-width="2" stroke-linecap="round" stroke-linejoin="round"/>
<path d="M8.85425 33.6458L15.9376 37.1875" stroke="white" stroke-width="2" stroke-linecap="round" stroke-linejoin="round"/>
<path d="M76.1458 33.6458L69.0625 37.1875" stroke="white" stroke-width="2" stroke-linecap="round" stroke-linejoin="round"/>
<path d="M15.9375 21.25V1.77081L23.0208 5.31248V14.1666" stroke="white" stroke-width="2" stroke-linecap="round" stroke-linejoin="round"/>
<path d="M69.0626 21.25V1.77081L61.9792 5.31248V14.1666" stroke="white" stroke-width="2" stroke-linecap="round" stroke-linejoin="round"/>
</svg>
