<svg width="86" height="86" viewBox="0 0 86 86" fill="none" xmlns="http://www.w3.org/2000/svg">
<path d="M5.8125 69.9174H80.1875V77.0007H5.8125V69.9174Z" stroke="white" stroke-width="1.5" stroke-linecap="round" stroke-linejoin="round"/>
<path d="M12.896 77.0007H23.521V84.084H12.896V77.0007Z" stroke="white" stroke-width="1.5" stroke-linecap="round" stroke-linejoin="round"/>
<path d="M62.479 77.0007H73.104V84.084H62.479V77.0007Z" stroke="white" stroke-width="1.5" stroke-linecap="round" stroke-linejoin="round"/>
<path d="M71.3332 52.209H69.5623V22.1048L57.1665 9.70901H28.8332L16.4373 22.1048V52.209H14.6665C13.2575 52.209 11.9063 52.7687 10.91 53.765C9.91371 54.7613 9.354 56.1126 9.354 57.5215V69.9173H76.6457V57.5215C76.6457 56.1126 76.086 54.7613 75.0897 53.765C74.0934 52.7687 72.7421 52.209 71.3332 52.209Z" stroke="white" stroke-width="1.5" stroke-linecap="round" stroke-linejoin="round"/>
<path d="M23.521 23.8757H62.4793V38.0424H23.521V23.8757Z" stroke="white" stroke-width="1.5" stroke-linecap="round" stroke-linejoin="round"/>
<path d="M30.604 48.6674H55.3957V69.9174H30.604V48.6674Z" stroke="white" stroke-width="1.5" stroke-linecap="round" stroke-linejoin="round"/>
<path d="M30.604 55.7507H55.3957" stroke="white" stroke-width="1.5" stroke-linecap="round" stroke-linejoin="round"/>
<path d="M30.604 62.834H55.3957" stroke="white" stroke-width="1.5" stroke-linecap="round" stroke-linejoin="round"/>
<path d="M16.4375 59.2924H23.5208V62.834H16.4375V59.2924Z" stroke="white" stroke-width="1.5" stroke-linecap="round" stroke-linejoin="round"/>
<path d="M62.479 59.2924H69.5623V62.834H62.479V59.2924Z" stroke="white" stroke-width="1.5" stroke-linecap="round" stroke-linejoin="round"/>
<path d="M43 23.8757V38.0424" stroke="white" stroke-width="1.5" stroke-linecap="round" stroke-linejoin="round"/>
<path d="M76.646 27.4174H80.1877V34.5007H76.646V27.4174Z" stroke="white" stroke-width="1.5" stroke-linecap="round" stroke-linejoin="round"/>
<path d="M5.8125 27.4174H9.35417V34.5007H5.8125V27.4174Z" stroke="white" stroke-width="1.5" stroke-linecap="round" stroke-linejoin="round"/>
<path d="M9.354 34.5007L16.4373 38.0424" stroke="white" stroke-width="1.5" stroke-linecap="round" stroke-linejoin="round"/>
<path d="M76.6458 34.5007L69.5625 38.0424" stroke="white" stroke-width="1.5" stroke-linecap="round" stroke-linejoin="round"/>
<path d="M16.4375 22.1049V2.6257L23.5208 6.16737V15.0215" stroke="white" stroke-width="1.5" stroke-linecap="round" stroke-linejoin="round"/>
<path d="M69.5623 22.1049V2.6257L62.479 6.16737V15.0215" stroke="white" stroke-width="1.5" stroke-linecap="round" stroke-linejoin="round"/>
</svg>
