<svg width="85" height="85" viewBox="0 0 85 85" fill="none" xmlns="http://www.w3.org/2000/svg">
<g clip-path="url(#clip0_110_306)">
<path d="M31.8748 49.5833H53.1248V53.125H31.8748V49.5833Z" fill="white"/>
<path d="M31.8748 56.6667H53.1248V60.2084H31.8748V56.6667Z" fill="white"/>
<path d="M31.8748 63.75H53.1248V67.2917H31.8748V63.75Z" fill="white"/>
<path d="M76.5707 35.4168H79.6873C80.157 35.4168 80.6074 35.2302 80.9395 34.8981C81.2716 34.566 81.4582 34.1156 81.4582 33.6459V26.5626C81.4582 26.0929 81.2716 25.6425 80.9395 25.3104C80.6074 24.9783 80.157 24.7918 79.6873 24.7918H76.1457C75.676 24.7918 75.2256 24.9783 74.8935 25.3104C74.5614 25.6425 74.3748 26.0929 74.3748 26.5626V32.548L70.8332 34.3188V1.77093C70.8338 1.46999 70.7577 1.17386 70.612 0.910493C70.4664 0.647128 70.2561 0.425221 70.0009 0.265721C69.7457 0.106222 69.454 0.0143911 69.1535 -0.00110042C68.853 -0.0165919 68.5534 0.0447666 68.2832 0.177183L61.1998 3.71885C60.9018 3.86488 60.6508 4.09173 60.4755 4.37352C60.3001 4.65531 60.2075 4.98071 60.2082 5.3126V9.88135L57.9061 7.57927C57.5734 7.25859 57.1286 7.08066 56.6665 7.08343H28.3332C27.8661 7.09009 27.4205 7.28103 27.0936 7.61468L24.7915 9.88135V5.3126C24.7922 4.98071 24.6995 4.65531 24.5242 4.37352C24.3489 4.09173 24.0979 3.86488 23.7998 3.71885L16.7165 0.177183C16.4463 0.0447666 16.1467 -0.0165919 15.8462 -0.00110042C15.5456 0.0143911 15.254 0.106222 14.9988 0.265721C14.7436 0.425221 14.5333 0.647128 14.3876 0.910493C14.242 1.17386 14.1659 1.46999 14.1665 1.77093V34.3188L10.6248 32.548V26.5626C10.6248 26.0929 10.4383 25.6425 10.1062 25.3104C9.77408 24.9783 9.32366 24.7918 8.854 24.7918H5.31234C4.84268 24.7918 4.39226 24.9783 4.06017 25.3104C3.72807 25.6425 3.5415 26.0929 3.5415 26.5626V33.6459C3.5415 34.1156 3.72807 34.566 4.06017 34.8981C4.39226 35.2302 4.84268 35.4168 5.31234 35.4168H8.429L14.1665 38.2855V49.5834C12.2879 49.5834 10.4862 50.3297 9.15783 51.6581C7.82945 52.9865 7.08317 54.7882 7.08317 56.6668V67.2918H5.31234C4.84268 67.2918 4.39226 67.4783 4.06017 67.8104C3.72807 68.1425 3.5415 68.5929 3.5415 69.0626V76.1459C3.5415 76.6156 3.72807 77.066 4.06017 77.3981C4.39226 77.7302 4.84268 77.9168 5.31234 77.9168H10.6248V83.2293C10.6248 83.6989 10.8114 84.1493 11.1435 84.4814C11.4756 84.8135 11.926 85.0001 12.3957 85.0001H23.0207C23.4903 85.0001 23.9407 84.8135 24.2728 84.4814C24.6049 84.1493 24.7915 83.6989 24.7915 83.2293V77.9168H60.2082V83.2293C60.2082 83.6989 60.3947 84.1493 60.7268 84.4814C61.0589 84.8135 61.5093 85.0001 61.979 85.0001H72.604C73.0737 85.0001 73.5241 84.8135 73.8562 84.4814C74.1883 84.1493 74.3748 83.6989 74.3748 83.2293V77.9168H79.6873C80.157 77.9168 80.6074 77.7302 80.9395 77.3981C81.2716 77.066 81.4582 76.6156 81.4582 76.1459V69.0626C81.4582 68.5929 81.2716 68.1425 80.9395 67.8104C80.6074 67.4783 80.157 67.2918 79.6873 67.2918H77.9165V56.6668C77.9165 54.7882 77.1702 52.9865 75.8418 51.6581C74.5135 50.3297 72.7118 49.5834 70.8332 49.5834V38.2855L76.5707 35.4168ZM21.2498 23.0209C21.2498 22.5513 21.4364 22.1009 21.7685 21.7688C22.1006 21.4367 22.551 21.2501 23.0207 21.2501H40.729V38.9584H23.0207C22.551 38.9584 22.1006 38.7719 21.7685 38.4398C21.4364 38.1077 21.2498 37.6573 21.2498 37.1876V23.0209ZM24.7915 61.9793C24.7915 62.4489 24.6049 62.8993 24.2728 63.2314C23.9407 63.5635 23.4903 63.7501 23.0207 63.7501H15.9373C15.4677 63.7501 15.0173 63.5635 14.6852 63.2314C14.3531 62.8993 14.1665 62.4489 14.1665 61.9793V58.4376C14.1665 57.9679 14.3531 57.5175 14.6852 57.1854C15.0173 56.8533 15.4677 56.6668 15.9373 56.6668H23.0207C23.4903 56.6668 23.9407 56.8533 24.2728 57.1854C24.6049 57.5175 24.7915 57.9679 24.7915 58.4376V61.9793ZM56.6665 69.0626C56.6665 69.5323 56.4799 69.9827 56.1478 70.3148C55.8157 70.6469 55.3653 70.8334 54.8957 70.8334H30.104C29.6343 70.8334 29.1839 70.6469 28.8518 70.3148C28.5197 69.9827 28.3332 69.5323 28.3332 69.0626V47.8126C28.3332 47.3429 28.5197 46.8925 28.8518 46.5604C29.1839 46.2283 29.6343 46.0418 30.104 46.0418H54.8957C55.3653 46.0418 55.8157 46.2283 56.1478 46.5604C56.4799 46.8925 56.6665 47.3429 56.6665 47.8126V69.0626ZM44.2707 38.9584V21.2501H61.979C62.4487 21.2501 62.8991 21.4367 63.2312 21.7688C63.5633 22.1009 63.7498 22.5513 63.7498 23.0209V37.1876C63.7498 37.6573 63.5633 38.1077 63.2312 38.4398C62.8991 38.7719 62.4487 38.9584 61.979 38.9584H44.2707ZM70.8332 61.9793C70.8332 62.4489 70.6466 62.8993 70.3145 63.2314C69.9824 63.5635 69.532 63.7501 69.0623 63.7501H61.979C61.5093 63.7501 61.0589 63.5635 60.7268 63.2314C60.3947 62.8993 60.2082 62.4489 60.2082 61.9793V58.4376C60.2082 57.9679 60.3947 57.5175 60.7268 57.1854C61.0589 56.8533 61.5093 56.6668 61.979 56.6668H69.0623C69.532 56.6668 69.9824 56.8533 70.3145 57.1854C70.6466 57.5175 70.8332 57.9679 70.8332 58.4376V61.9793Z" fill="white"/>
</g>
<defs>
<clipPath id="clip0_110_306">
<rect width="85" height="85" fill="white"/>
</clipPath>
</defs>
</svg>
