<svg width="24" height="24" viewBox="0 0 24 24" fill="none" xmlns="http://www.w3.org/2000/svg">
<path fill-rule="evenodd" clip-rule="evenodd" d="M3.51562 3.51469C5.76375 1.26506 8.81812 0 12 0C15.1819 0 18.2362 1.26506 20.4844 3.51469C22.7344 5.76431 24 8.81869 24 12C24 15.1813 22.7344 18.2357 20.4844 20.4853C18.2362 22.7349 15.1819 24 12 24C8.81812 24 5.76375 22.7349 3.51562 20.4853C1.26562 18.2357 0 15.1813 0 12C0.000623381 8.81734 1.26518 5.76521 3.51562 3.51469ZM12.4294 8.859C11.2631 9.34444 8.93062 10.3493 5.43188 11.8733C4.86375 12.0992 4.56563 12.3203 4.53937 12.5363C4.49321 12.9011 4.95018 13.0451 5.57113 13.2406C5.65629 13.2674 5.74454 13.2952 5.835 13.3247C6.44813 13.5238 7.27313 13.7569 7.70063 13.7661C8.09062 13.7745 8.52375 13.6142 9.00187 13.2853C12.2719 11.079 13.9575 9.96375 14.0644 9.93975C14.1394 9.92288 14.2425 9.9015 14.3119 9.96394C14.3831 10.0262 14.3756 10.1443 14.3681 10.176C14.3239 10.3687 12.5356 12.0314 11.605 12.8966C11.3124 13.1686 11.1047 13.3618 11.0625 13.4057C10.9683 13.5035 10.8723 13.5961 10.78 13.685C10.211 14.2336 9.78411 14.6451 10.8038 15.3169C11.2981 15.6425 11.6928 15.9113 12.0872 16.18C12.511 16.4686 12.9345 16.7571 13.4813 17.1157C13.6219 17.2079 13.7561 17.3036 13.8869 17.3968C14.3839 17.7511 14.8303 18.0693 15.3825 18.0186C15.7031 17.9891 16.035 17.6876 16.2019 16.7884C16.5994 14.6631 17.3813 10.0584 17.5613 8.16094C17.5781 7.99481 17.5575 7.782 17.5425 7.68863C17.5256 7.59516 17.4919 7.46203 17.3719 7.36359C17.2275 7.24688 17.0062 7.22231 16.9069 7.22391C16.455 7.23206 15.7631 7.47281 12.4294 8.859Z" fill="#FF8A00"/>
</svg>
