<svg width="23" height="24" viewBox="0 0 23 24" fill="none" xmlns="http://www.w3.org/2000/svg">
<path fill-rule="evenodd" clip-rule="evenodd" d="M16.6188 0.618345C12.9305 -0.206115 9.10568 -0.206115 5.41739 0.618345L5.01997 0.706268C3.9825 0.938222 3.02964 1.45324 2.26724 2.19412C1.50484 2.935 0.96275 3.87272 0.70119 4.90313C-0.23373 8.58714 -0.23373 12.4463 0.70119 16.1303C0.950628 17.113 1.45546 18.0123 2.1645 18.737C2.87355 19.4617 3.7616 19.986 4.73862 20.2569L5.28374 23.5112C5.30114 23.6145 5.34593 23.7113 5.41344 23.7915C5.48095 23.8716 5.56871 23.9322 5.66759 23.9669C5.76646 24.0016 5.87284 24.0092 5.97563 23.9888C6.07843 23.9685 6.17389 23.9209 6.25207 23.8511L9.45364 20.9872C11.857 21.1339 14.269 20.9417 16.6188 20.4163L17.0174 20.3284C18.0548 20.0964 19.0077 19.5814 19.7701 18.8405C20.5325 18.0996 21.0746 17.1619 21.3362 16.1315C22.271 12.4475 22.271 8.58832 21.3362 4.9043C21.0745 3.87375 20.5322 2.93592 19.7696 2.19503C19.007 1.45414 18.0539 0.939201 17.0162 0.70744L16.6188 0.618345ZM6.40681 4.80817C6.18894 4.77646 5.96677 4.82032 5.77728 4.93244H5.76087C5.32126 5.19035 4.92502 5.51508 4.58739 5.89725C4.30604 6.22198 4.15364 6.55022 4.11378 6.86675C4.09033 7.05432 4.10675 7.24423 4.16184 7.42359L4.18295 7.43532C4.49947 8.36496 4.91212 9.25943 5.41621 10.1011C6.0662 11.2834 6.86607 12.3768 7.796 13.3543L7.82413 13.3942L7.86868 13.427L7.89565 13.4586L7.92847 13.4868C8.90937 14.4195 10.0054 15.2232 11.1898 15.8783C12.5438 16.6157 13.3656 16.9638 13.8592 17.1092V17.1162C14.0034 17.1608 14.1347 17.1807 14.2671 17.1807C14.6875 17.1497 15.0853 16.9788 15.3972 16.6954C15.7782 16.3578 16.1006 15.9603 16.3515 15.5184V15.5102C16.5871 15.0647 16.5074 14.645 16.1675 14.3601C15.4846 13.7635 14.7462 13.2335 13.9623 12.7775C13.4371 12.4927 12.9037 12.665 12.688 12.9534L12.2273 13.5348C11.9905 13.8232 11.5615 13.7834 11.5615 13.7834L11.5497 13.7904C8.34816 12.9733 7.49354 9.73187 7.49354 9.73187C7.49354 9.73187 7.45369 9.29108 7.75028 9.066L8.32705 8.60176C8.60372 8.37668 8.79598 7.84445 8.49938 7.31926C8.04641 6.53471 7.51751 5.79652 6.92029 5.11532C6.79003 4.955 6.60736 4.84581 6.40447 4.807L6.40681 4.80817ZM11.8158 3.39906C11.6604 3.39906 11.5113 3.46082 11.4014 3.57074C11.2914 3.68067 11.2297 3.82976 11.2297 3.98521C11.2297 4.14067 11.2914 4.28976 11.4014 4.39969C11.5113 4.50961 11.6604 4.57137 11.8158 4.57137C13.2988 4.57137 14.5297 5.05553 15.5039 5.984C16.0045 6.49161 16.3949 7.093 16.6504 7.75184C16.9072 8.41185 17.0244 9.11641 16.9939 9.82214C16.9907 9.89911 17.0027 9.97597 17.0291 10.0483C17.0556 10.1207 17.0961 10.1871 17.1482 10.2438C17.2535 10.3584 17.4 10.4264 17.5555 10.4329C17.7109 10.4394 17.8626 10.3839 17.9771 10.2786C18.0917 10.1733 18.1597 10.0268 18.1662 9.87137C18.2026 9.00326 18.0585 8.13705 17.743 7.32746C17.4262 6.51404 16.9458 5.7743 16.3316 5.15401L16.3199 5.14228C15.1112 3.98756 13.5813 3.39906 11.8158 3.39906ZM11.776 5.32633C11.6205 5.32633 11.4714 5.38809 11.3615 5.49802C11.2516 5.60794 11.1898 5.75703 11.1898 5.91249C11.1898 6.06795 11.2516 6.21704 11.3615 6.32696C11.4714 6.43689 11.6205 6.49864 11.776 6.49864H11.7959C12.8651 6.57484 13.6435 6.93122 14.1886 7.51621C14.7478 8.11877 15.0373 8.86788 15.0151 9.794C15.0115 9.94946 15.0698 10.1 15.1772 10.2124C15.2846 10.3249 15.4323 10.3901 15.5877 10.3936C15.7432 10.3972 15.8937 10.3389 16.0062 10.2315C16.1186 10.1241 16.1838 9.97642 16.1874 9.82096C16.2155 8.60528 15.824 7.55606 15.0479 6.71904V6.71669C14.2542 5.8656 13.1652 5.41543 11.8545 5.32751L11.8346 5.32516L11.776 5.32633ZM11.7537 7.28995C11.6753 7.28303 11.5962 7.29199 11.5213 7.31628C11.4464 7.34058 11.3772 7.37973 11.3177 7.43138C11.2583 7.48303 11.2099 7.54612 11.1753 7.6169C11.1408 7.68769 11.1209 7.7647 11.1168 7.84334C11.1127 7.92198 11.1245 8.00064 11.1515 8.07462C11.1785 8.14861 11.2201 8.2164 11.2738 8.27395C11.3276 8.3315 11.3924 8.37762 11.4644 8.40957C11.5363 8.44153 11.614 8.45865 11.6928 8.45992C12.1828 8.48571 12.4958 8.63342 12.6927 8.83154C12.8909 9.03083 13.0386 9.35087 13.0655 9.85144C13.067 9.9301 13.0843 10.0077 13.1163 10.0795C13.1484 10.1513 13.1946 10.216 13.2522 10.2696C13.3098 10.3232 13.3776 10.3647 13.4515 10.3915C13.5255 10.4184 13.6041 10.43 13.6827 10.4259C13.7612 10.4217 13.8381 10.4018 13.9088 10.3672C13.9795 10.3327 14.0425 10.2843 14.0941 10.2249C14.1457 10.1655 14.1848 10.0963 14.2091 10.0215C14.2334 9.94664 14.2424 9.86769 14.2355 9.78931C14.198 9.08593 13.9776 8.4646 13.5262 8.0074C13.0726 7.5502 12.4548 7.32747 11.7537 7.28995Z" fill="#191919"/>
</svg>
